<?xml version="1.0" encoding="UTF-8"?>
<svg xmlns:inkscape="http://www.inkscape.org/namespaces/inkscape" xmlns:svg="http://www.w3.org/2000/svg" xmlns:sodipodi="http://sodipodi.sourceforge.net/DTD/sodipodi-0.dtd" xmlns="http://www.w3.org/2000/svg" xmlns:xlink="http://www.w3.org/1999/xlink" version="1.1" id="svg38" inkscape:version="1.1.1 (3bf5ae0d25, 2021-09-20)" sodipodi:docname="inserm_fat.svg" x="0px" y="0px" viewBox="0 0 540 219" style="enable-background:new 0 0 540 219;" xml:space="preserve"> <style type="text/css"> .st0{fill:url(#SVGID_1_);} .st1{fill:#F9423A;} .st2{fill:#FB2902;} .st3{fill:url(#SVGID_00000065781995349280610400000003338592278329483166_);} .st4{fill:none;} .st5{fill:url(#SVGID_00000091737713912810490270000013945077878792210869_);} .st6{fill:url(#SVGID_00000146494705471492834300000002365630860188464302_);} </style> <g> <linearGradient id="SVGID_1_" gradientUnits="userSpaceOnUse" x1="8.6218" y1="148.3319" x2="35.2062" y2="148.3319" gradientTransform="matrix(0 1 -1 0 203.1279 -8.5454)"> <stop offset="2.688170e-02" style="stop-color:#836823"/> <stop offset="0.2044" style="stop-color:#FFFACB"/> <stop offset="0.2635" style="stop-color:#F0EABA"/> <stop offset="0.3809" style="stop-color:#C9BF8D"/> <stop offset="0.5439" style="stop-color:#8A7A45"/> <stop offset="0.6398" style="stop-color:#634F18"/> <stop offset="1" style="stop-color:#C2912E"/> </linearGradient> <path class="st0" d="M2.4,26.7V0.1h104.8v26.6h-8V9.6H10.5v17.1H2.4z"/> </g> <g> <g> <ellipse transform="matrix(0.2218 -0.9751 0.9751 0.2218 6.3441 246.377)" class="st1" cx="157.5" cy="119.2" rx="14.7" ry="14.7"/> <g> <rect x="146.7" y="0" width="21.9" height="87.7"/> <path d="M205.2,30.4c1.9-2,4.1-4.3,7.4-6.1c2.9-1.5,6.2-2.9,10.8-2.9c3.9,0,8.2,0.7,11.6,2.6c6.8,3.6,8.6,9.4,8.6,19.5v44.2h-19 V51.3c0-5.8-0.1-7.9-0.9-9.7c-1.5-3.5-4.9-5-8.6-5c-10.1,0-10.1,8.1-10.1,16.1v34.9h-19V23.1h19.2V30.4z"/> <path d="M263.3,66c5.2,5.1,12.4,8.8,19.7,8.8c4.6,0,11.7-1.5,11.7-6.3c0-2.2-1.4-3.1-2.5-3.7c-2.9-1.5-7.4-1.9-11.2-2.5 c-2.9-0.5-5.9-1.1-8.7-2c-4-1.1-7.9-2.7-10.8-5.6c-2.9-2.9-4.8-7.3-4.8-12.1c0-10.7,9.2-21.7,27.4-21.7c15.4,0,24.8,6.1,29.2,9.2 l-10.7,11.2c-6.1-4.7-13.1-6.3-17.6-6.3c-7.5,0-9.3,3-9.3,4.8c0,3.7,4.1,4.5,10.4,5.6c13.1,2.4,28.2,5.8,28.2,21.2 c0,15.3-15.3,22.7-30.7,22.7c-18.1,0-27.9-8.4-32-12.3L263.3,66z"/> <path d="M340.6,47.3c0.6-2.7,1.2-5.7,3.8-8.5c1.9-2,5.1-4.2,9.7-4.2c3.4,0,7,1.2,9.3,3.6c2.7,2.8,3.2,6.4,3.6,9.1H340.6z M371.7,65.7c-3,5-6,9.8-16.4,9.8c-10.3,0-14.9-8.1-14.8-16.2h46.3c-0.2-7.3-0.7-20-9.2-29c-8.3-8.9-19.1-9.3-24.2-9.3 C327.8,20.9,321,41,321,56.6c0,21.3,12.5,33.4,32.8,33.4c11.4,0,19.3-3.3,25.3-8.8c3.4-3.1,5.6-6.2,7.8-9.9L371.7,65.7z"/> <path d="M416.2,30.4c4.2-3.6,8.8-7.3,18.7-8.3v17l-6.3,1c-9.2,1.6-11.9,4.7-11.9,12.9v34.8h-19V22.8h18.5V30.4z"/> <path d="M463.2,30.4c2.3-2.6,7.3-9,18.5-9c10.7,0,14.5,4,18,7.6c3.7-3.1,9-7.6,19.4-7.6c10.7,0,16.1,5.3,18.1,9.3 c1.6,3.5,1.7,7.9,1.7,14.9v42.1h-18.8V53.8c0-3.7,0-8.5-0.8-11c-1.8-5.5-6.9-5.8-8.4-5.8c-1.9,0-4.4,0.5-6.3,2 c-3.6,2.8-3.6,6.6-3.6,13.6v35.2h-18.8V49.4c0-2.9-0.1-6.7-1.9-9.2c-1.5-2-4.4-3.3-7.5-3.3c-1.5,0-3.5,0.4-5.3,1.5 c-4.3,2.8-4.4,8.1-4.4,12.4v36.9h-18.8V23h18.8V30.4z"/> </g> </g> <g> <polygon points="146.4,185.5 146.4,167 150.9,167 150.9,181.6 157.9,181.6 157.9,185.5 "/> <path d="M168,185.5v-1.2c-0.3,0.2-0.5,0.4-0.8,0.6c-0.5,0.3-1.6,1-3.3,1c-2.4,0-3.5-1.3-3.9-2.3c-0.3-0.6-0.4-1.3-0.4-1.9 c0-2.5,2.1-3.6,2.7-3.9c1-0.4,2.8-0.8,5.3-1.3v-0.8c0-0.5-0.1-1.7-1.5-1.7c-1.1,0-1.7,0.6-1.9,1c0,0.1-0.1,0.3-0.2,0.6h-3.9 c0.1-0.5,0.1-1.7,1.1-2.8c1.1-1.1,2.5-1.3,3-1.4c0.8-0.1,1.4-0.1,1.7-0.1c1.9,0,4.4,0.4,5.3,2.4c0.2,0.4,0.3,0.7,0.3,1.5v8 c0,1.2,0.1,1.6,0.4,2.1H168z M165.1,179.8c-0.2,0.1-0.3,0.1-0.5,0.2c-1,0.4-1.2,1-1.2,1.5c0,0.1,0,0.4,0.2,0.6 c0.2,0.3,0.5,0.8,1.3,0.8c0.7,0,1.3-0.4,1.5-0.6c1.1-0.8,1.2-2.1,1.2-3.4L165.1,179.8z"/> <path d="M192.6,183.3c-1.2,1.8-3.6,2.5-5.6,2.5c-0.7,0-2.9-0.1-4.9-1.4c-0.8-0.5-1.3-1-1.6-1.3l2.5-2.3c0.2,0.2,0.5,0.5,0.7,0.7 c0.9,0.7,2.1,1.2,3.2,1.2c0.2,0,0.5,0,1-0.1c0.6-0.1,1.4-0.5,1.4-1.2c0-0.9-1.2-1.1-2.6-1.3c-2.8-0.5-4-1.1-4.7-2.5 c-0.4-0.7-0.4-1.4-0.4-1.7c0-0.4,0.1-1.2,0.6-2c0.6-1.1,2.1-2.5,5.1-2.5c0.8,0,2.8,0.1,4.8,1.3c0.4,0.2,0.7,0.5,1.1,0.7l-2.4,2.3 c-0.2-0.2-0.5-0.4-0.7-0.5c-0.7-0.4-1.8-0.8-2.6-0.8c-0.6,0-1.1,0.2-1.2,0.2c-0.5,0.2-0.6,0.6-0.6,0.8c0,0.3,0.2,0.5,0.4,0.7 c0.4,0.3,1.3,0.4,1.8,0.5l1.8,0.4c2.1,0.5,3.9,1.6,3.9,4.1C193.3,182.2,192.9,183,192.6,183.3"/> <path d="M206.3,183.6c-1.8,2.1-4,2.4-5,2.4c-0.6,0-1.8-0.1-3.1-0.8c-2.5-1.3-3.5-3.7-3.5-6.4c0-0.6,0-1.9,0.7-3.5 c1.5-3.6,4.8-3.9,6-3.9c1,0,3.4,0.2,5.2,2.5c0.2,0.2,0.3,0.4,0.5,0.8l-2.9,1.7c0-0.1-0.2-0.5-0.4-0.8c-0.2-0.3-1-1.1-2.2-1.1 c-0.3,0-0.8,0-1.4,0.5c-1.3,1-1.4,3.4-1.4,3.6c0,1.2,0.4,2.7,1.3,3.5c0.3,0.2,0.8,0.7,1.7,0.7c1.3,0,2-0.9,2.2-1.2 c0.1-0.2,0.2-0.4,0.4-0.8l2.9,1.6C206.9,182.7,206.6,183.2,206.3,183.6"/> <path d="M209.3,167h3.9v3.1h-3.9V167z M209.3,171.8h3.9v13.7h-3.9V171.8z"/> <path d="M219.8,179.5c0,0.1,0,0.4,0.1,0.8c0.3,1.6,1.4,2.6,3,2.6c0.2,0,0.7,0,1.3-0.2c1.3-0.5,1.9-1.9,2.1-2.2l2.9,1.6 c-0.5,0.8-0.8,1.2-1.1,1.5c-2,2.2-4.5,2.4-5.5,2.4c-0.4,0-1.3,0-2.4-0.4c-2.9-0.9-4.3-3.6-4.3-6.7c0-0.8,0.1-3.4,1.7-5.3 c0.8-0.9,2.2-2.2,5.1-2.2c0.9,0,3.5,0.1,5.2,2.5c1.5,2.1,1.4,5,1.5,5.6H219.8z M223.8,174.5c-0.5-0.3-1-0.3-1.2-0.3 c-1.5,0-2.3,1.2-2.5,1.7c-0.1,0.2-0.2,0.5-0.3,1h5.4C225.2,176.5,225.1,175.1,223.8,174.5"/> <path d="M239.5,185.5v-7.7c0-0.9,0-1.6-0.2-2c-0.2-0.5-0.7-1.1-1.8-1.1c-0.2,0-0.8,0-1.3,0.4c-0.7,0.5-0.7,1.4-0.7,3v7.4h-3.9 v-13.6h4v1.2c0.1-0.1,0.3-0.3,0.6-0.6c0.5-0.4,1.5-0.9,3.1-0.9c0.3,0,1.4,0,2.4,0.5c1.6,0.9,1.8,2.4,1.8,4.1v9.4H239.5z"/> <path d="M257.5,183.6c-1.8,2.1-4,2.4-5,2.4c-0.6,0-1.8-0.1-3.1-0.8c-2.5-1.3-3.5-3.7-3.5-6.4c0-0.6,0-1.9,0.7-3.5 c1.5-3.6,4.8-3.9,6-3.9c1,0,3.4,0.2,5.2,2.5c0.2,0.2,0.3,0.4,0.5,0.8l-2.9,1.7c0-0.1-0.2-0.5-0.4-0.8c-0.2-0.3-1-1.1-2.2-1.1 c-0.3,0-0.8,0-1.4,0.5c-1.3,1-1.4,3.4-1.4,3.6c0,1.2,0.4,2.7,1.3,3.5c0.3,0.2,0.8,0.7,1.7,0.7c1.3,0,2-0.9,2.2-1.2 c0.1-0.2,0.2-0.4,0.4-0.8l2.9,1.6C258.2,182.7,257.9,183.2,257.5,183.6"/> <path d="M263.6,179.5c0,0.1,0,0.4,0,0.8c0.3,1.6,1.4,2.6,3,2.6c0.2,0,0.7,0,1.3-0.2c1.3-0.5,1.9-1.9,2.1-2.2l2.9,1.6 c-0.5,0.8-0.8,1.2-1.1,1.5c-2,2.2-4.5,2.4-5.5,2.4c-0.4,0-1.3,0-2.4-0.4c-2.9-0.9-4.3-3.6-4.3-6.7c0-0.8,0.1-3.4,1.7-5.3 c0.8-0.9,2.2-2.2,5.1-2.2c0.9,0,3.5,0.1,5.2,2.5c1.5,2.1,1.4,5,1.5,5.6H263.6z M267.6,174.5c-0.5-0.3-1-0.3-1.2-0.3 c-1.5,0-2.3,1.2-2.5,1.7c-0.1,0.2-0.2,0.5-0.3,1h5.4C269,176.5,268.9,175.1,267.6,174.5"/> <path d="M294.4,183.3c-0.7,1.2-1.6,1.8-2.1,2c-0.4,0.2-1.2,0.5-2.5,0.5c-1.4,0-2.1-0.4-3.3-1.2v5.6h-4v-18.4h3.5l0,1.3 c0.2-0.3,0.3-0.4,0.6-0.6c0.5-0.4,1.5-1.1,3.1-1.1c0.8,0,2.5,0.1,4,1.7c1.3,1.5,1.8,3.5,1.8,5.4 C295.6,180.9,294.9,182.5,294.4,183.3 M291,175.2c-0.3-0.4-0.7-0.7-1.2-0.8c-0.3-0.1-0.5-0.1-0.6-0.1c-1.4,0-2.8,1.4-2.8,4.3 c0,0.3-0.1,1.9,0.7,3.1c0.2,0.3,0.5,0.6,0.8,0.7c0.2,0.1,0.6,0.4,1.2,0.4c1.3,0,1.9-1,2.1-1.4c0.3-0.6,0.6-1.4,0.6-2.9 C291.9,178.2,291.9,176.4,291,175.2"/> <path d="M309.1,184.3c-0.8,0.7-2.3,1.6-4.8,1.6c-0.7,0-3.4-0.1-5.2-2c-0.8-0.8-1.9-2.5-1.9-5.3c0-0.8,0.1-3,1.5-4.9 c0.9-1.1,2.7-2.5,6.1-2.3c1.5,0.1,2.9,0.4,4.2,1.5c1.6,1.4,2.4,3.6,2.4,5.8C311.4,181.7,310,183.5,309.1,184.3 M306.1,175.1 c-0.4-0.3-0.9-0.5-1.9-0.5c-0.2,0-0.9,0.1-1.5,0.4c-0.7,0.4-1.5,1.6-1.5,3.6c0,1.3,0.4,2.3,0.7,2.7c0.3,0.5,1.1,1.3,2.5,1.3 c2.2,0,3.1-1.9,3.1-3.9C307.5,176.7,306.9,175.7,306.1,175.1"/> <path d="M321.9,185.5v-1.3c-0.3,0.3-0.4,0.5-0.6,0.6c-0.5,0.4-1.7,1.1-3.3,1.1c-0.3,0-1.8,0-2.8-0.8c-1.5-1.2-1.3-3.4-1.3-5.1 v-8.1h3.9v8.5c0,0.9,0,1.5,0.7,2c0.2,0.1,0.6,0.3,1.1,0.3c1.2,0,1.9-0.7,2.1-1.2c0.1-0.3,0.2-0.7,0.2-1.1v-8.5h3.9v13.7H321.9z"/> <path d="M335.6,175.4c-0.1,0-0.7,0.1-1.2,0.3c-1,0.4-1.2,1-1.2,2.1v7.7h-3.9v-13.7h3.8v1.4c0.3-0.3,0.7-0.7,1.5-1 c1.1-0.4,1.8-0.5,2.3-0.6v3.6L335.6,175.4z"/> <rect x="346.3" y="167" width="3.9" height="18.5"/> <path d="M361.5,185.5v-1.2c-0.3,0.2-0.5,0.4-0.8,0.6c-0.5,0.3-1.6,1-3.3,1c-2.4,0-3.5-1.3-3.9-2.3c-0.3-0.6-0.4-1.3-0.4-1.9 c0-2.5,2.1-3.6,2.7-3.9c1-0.4,2.8-0.8,5.3-1.3v-0.8c0-0.5-0.1-1.7-1.5-1.7c-1.1,0-1.7,0.6-1.9,1c-0.1,0.1-0.1,0.3-0.2,0.6h-3.9 c0-0.5,0.1-1.7,1.1-2.8c1.1-1.1,2.5-1.3,3-1.4c0.8-0.1,1.4-0.1,1.7-0.1c1.8,0,4.4,0.4,5.3,2.4c0.2,0.4,0.3,0.7,0.3,1.5v8 c0,1.2,0.1,1.6,0.4,2.1H361.5z M358.6,179.8c-0.2,0.1-0.3,0.1-0.5,0.2c-1,0.4-1.2,1-1.2,1.5c0,0.1,0,0.4,0.2,0.6 c0.2,0.3,0.5,0.8,1.3,0.8c0.7,0,1.3-0.4,1.5-0.6c1.1-0.8,1.2-2.1,1.2-3.4L358.6,179.8z"/> <path d="M386.2,183.3c-1.2,1.8-3.6,2.5-5.6,2.5c-0.7,0-2.9-0.1-4.9-1.4c-0.8-0.5-1.3-1-1.6-1.3l2.5-2.3c0.2,0.2,0.5,0.5,0.7,0.7 c0.9,0.7,2.1,1.2,3.1,1.2c0.2,0,0.5,0,1-0.1c0.6-0.1,1.4-0.5,1.4-1.2c0-0.9-1.2-1.1-2.6-1.3c-2.8-0.5-4-1.1-4.7-2.5 c-0.4-0.7-0.4-1.4-0.4-1.7c0-0.4,0.1-1.2,0.6-2c0.6-1.1,2.1-2.5,5.1-2.5c0.8,0,2.8,0.1,4.8,1.3c0.4,0.2,0.7,0.5,1.1,0.7l-2.4,2.3 c-0.2-0.2-0.5-0.4-0.7-0.5c-0.7-0.4-1.8-0.8-2.6-0.8c-0.6,0-1.1,0.2-1.2,0.2c-0.5,0.2-0.6,0.6-0.6,0.8c0,0.3,0.2,0.5,0.4,0.7 c0.4,0.3,1.3,0.4,1.8,0.5l1.8,0.4c2.1,0.5,3.9,1.6,3.9,4.1C386.8,182.2,386.4,183,386.2,183.3"/> <path d="M396.9,185.5v-1.2c-0.3,0.2-0.5,0.4-0.8,0.6c-0.5,0.3-1.6,1-3.3,1c-2.4,0-3.5-1.3-3.9-2.3c-0.3-0.6-0.4-1.3-0.4-1.9 c0-2.5,2.1-3.6,2.7-3.9c1-0.4,2.8-0.8,5.3-1.3v-0.8c0-0.5-0.1-1.7-1.5-1.7c-1.1,0-1.7,0.6-1.9,1c-0.1,0.1-0.1,0.3-0.2,0.6h-3.9 c0.1-0.5,0.1-1.7,1.1-2.8c1.1-1.1,2.5-1.3,3-1.4c0.8-0.1,1.4-0.1,1.7-0.1c1.9,0,4.4,0.4,5.3,2.4c0.2,0.4,0.3,0.7,0.3,1.5v8 c0,1.2,0,1.6,0.4,2.1H396.9z M394,179.8c-0.2,0.1-0.3,0.1-0.5,0.2c-1,0.4-1.2,1-1.2,1.5c0,0.1,0,0.4,0.2,0.6 c0.2,0.3,0.5,0.8,1.3,0.8c0.7,0,1.3-0.4,1.5-0.6c1.1-0.8,1.2-2.1,1.2-3.4L394,179.8z"/> <path d="M411.9,185.5v-7.7c0-0.9,0-1.6-0.2-2c-0.2-0.5-0.7-1.1-1.8-1.1c-0.2,0-0.8,0-1.3,0.4c-0.7,0.5-0.7,1.4-0.7,3v7.4H404 v-13.6h4v1.2c0.1-0.1,0.3-0.3,0.6-0.6c0.5-0.4,1.6-0.9,3.1-0.9c0.3,0,1.4,0,2.4,0.5c1.6,0.9,1.8,2.4,1.8,4.1v9.4H411.9z"/> <path d="M423.6,174.6v6.1c0,0.6,0,0.9,0.1,1.1c0.2,0.4,0.8,0.4,0.9,0.4c0.5,0,0.9,0,1.4,0v3.1c-0.3,0-1.2,0.2-2.1,0.2 c-0.3,0-0.6,0-0.8,0c-0.4,0-1.5,0-2.4-0.8c-1-0.9-1-2.3-1-3.6v-6.6h-1.9v-2.5h1.9v-4.3h3.9v4.3h2.6v2.5H423.6z"/> <path d="M431.4,179.5c0,0.1,0,0.4,0.1,0.8c0.3,1.6,1.4,2.6,3,2.6c0.2,0,0.7,0,1.3-0.2c1.3-0.5,1.9-1.9,2.1-2.2l2.9,1.6 c-0.5,0.8-0.8,1.2-1.1,1.5c-2,2.2-4.5,2.4-5.5,2.4c-0.4,0-1.3,0-2.4-0.4c-2.9-0.9-4.3-3.6-4.3-6.7c0-0.8,0-3.4,1.7-5.3 c0.8-0.9,2.2-2.2,5.1-2.2c0.9,0,3.5,0.1,5.2,2.5c1.5,2.1,1.5,5,1.5,5.6H431.4z M435.3,174.5c-0.5-0.3-1-0.3-1.2-0.3 c-1.5,0-2.3,1.2-2.5,1.7c-0.1,0.2-0.2,0.5-0.3,1h5.4C436.7,176.5,436.7,175.1,435.3,174.5 M434.9,170.1h-2.6l1.9-3.5h4.6 L434.9,170.1z"/> <polygon points="266.2,200.9 266.2,204.8 274.8,204.8 274.8,208.4 266.2,208.4 266.2,215.9 261.8,215.9 261.8,197.4 275.5,197.4 275.5,200.9 "/> <path d="M284,205.8c-0.1,0-0.7,0.1-1.2,0.3c-1,0.4-1.2,1-1.2,2.1v7.7h-3.9v-13.7h3.8v1.4c0.3-0.3,0.7-0.7,1.5-1 c1.1-0.4,1.8-0.5,2.3-0.6v3.6L284,205.8z"/> <path d="M298.2,214.7c-0.8,0.7-2.3,1.6-4.8,1.6c-0.7,0-3.4-0.1-5.2-2c-0.8-0.8-1.9-2.5-1.9-5.3c0-0.8,0-3,1.5-4.9 c0.9-1.1,2.7-2.5,6.1-2.3c1.6,0.1,2.9,0.4,4.2,1.5c1.7,1.4,2.4,3.6,2.4,5.8C300.5,212.1,299.1,213.9,298.2,214.7 M295.2,205.5 c-0.4-0.3-0.9-0.5-1.9-0.5c-0.2,0-0.9,0.1-1.5,0.4c-0.7,0.4-1.6,1.6-1.6,3.6c0,1.3,0.4,2.3,0.7,2.7c0.3,0.5,1.1,1.3,2.5,1.3 c2.2,0,3.1-1.9,3.1-3.9C296.6,207.1,295.9,206,295.2,205.5"/> <path d="M318.5,215.9v-7.2c0-1.4,0-2.2-0.4-2.8c-0.3-0.5-0.9-0.8-1.5-0.8c-0.3,0-1.2,0.1-1.7,1c-0.3,0.6-0.3,1.1-0.3,2.4v7.4h-3.9 v-8.1c0-1.3-0.2-1.9-0.8-2.3c-0.3-0.2-0.7-0.3-1.1-0.3c-0.2,0-0.7,0-1.1,0.3c-0.8,0.6-0.8,1.7-0.8,2.6v7.8H303v-13.7h3.9l0,1.4 c0.2-0.3,0.4-0.5,0.7-0.7c0.5-0.4,1.5-1.1,3.1-1.1c0.3,0,1.7,0,2.6,0.7c0.4,0.3,0.7,0.6,1.1,0.9c0.5-0.4,0.7-0.6,0.9-0.7 c0.5-0.3,1.5-0.9,3-0.9c0.5,0,2.3,0,3.4,1.5c0.6,0.8,0.7,1.7,0.7,3.6v8.9H318.5z"/> <path d="M343.5,213.7c-1.2,1.8-3.6,2.5-5.6,2.5c-0.7,0-2.9-0.1-4.9-1.4c-0.8-0.5-1.3-1-1.6-1.3l2.5-2.3c0.2,0.2,0.5,0.5,0.7,0.7 c0.9,0.7,2.1,1.2,3.1,1.2c0.2,0,0.5,0,1-0.1c0.6-0.1,1.4-0.5,1.4-1.2c0-0.9-1.2-1.1-2.6-1.3c-2.8-0.5-4-1.1-4.7-2.5 c-0.4-0.7-0.4-1.4-0.4-1.7c0-0.4,0.1-1.2,0.6-2c0.6-1.1,2.1-2.5,5.1-2.5c0.8,0,2.8,0.1,4.8,1.3c0.4,0.2,0.7,0.5,1.1,0.7l-2.4,2.3 c-0.2-0.2-0.5-0.4-0.7-0.5c-0.7-0.4-1.8-0.8-2.6-0.8c-0.6,0-1.1,0.2-1.2,0.2c-0.5,0.2-0.6,0.6-0.6,0.8c0,0.3,0.2,0.5,0.4,0.7 c0.4,0.3,1.3,0.4,1.8,0.5l1.8,0.4c2.1,0.5,3.9,1.6,3.9,4.1C344.1,212.5,343.7,213.4,343.5,213.7"/> <path d="M357.1,213.9c-1.8,2.1-4,2.4-5,2.4c-0.6,0-1.8-0.1-3.1-0.8c-2.5-1.3-3.5-3.7-3.5-6.4c0-0.6,0-1.9,0.7-3.5 c1.5-3.6,4.8-3.9,6-3.9c1,0,3.4,0.2,5.2,2.5c0.2,0.2,0.3,0.4,0.5,0.8l-2.9,1.7c0-0.1-0.2-0.5-0.4-0.8c-0.2-0.3-1-1.1-2.2-1.1 c-0.3,0-0.8,0-1.4,0.5c-1.3,1-1.4,3.4-1.4,3.6c0,1.2,0.4,2.7,1.3,3.5c0.3,0.2,0.8,0.7,1.7,0.7c1.3,0,2-0.9,2.2-1.2 c0.1-0.2,0.2-0.4,0.4-0.8l2.9,1.6C357.8,213.1,357.5,213.5,357.1,213.9"/> <path d="M360.2,197.4h3.9v3.1h-3.9V197.4z M360.2,202.2h3.9v13.7h-3.9V202.2z"/> <path d="M370.7,209.9c0,0.1,0,0.4,0,0.8c0.3,1.6,1.4,2.6,3,2.6c0.2,0,0.7,0,1.3-0.2c1.3-0.5,1.9-1.9,2.1-2.2l2.9,1.6 c-0.5,0.8-0.8,1.2-1.1,1.5c-2,2.2-4.5,2.4-5.5,2.4c-0.4,0-1.3,0-2.4-0.4c-2.9-0.9-4.3-3.6-4.3-6.7c0-0.8,0.1-3.4,1.7-5.3 c0.8-0.9,2.2-2.2,5.1-2.2c0.9,0,3.5,0.1,5.2,2.5c1.5,2.1,1.4,5,1.5,5.6H370.7z M374.6,204.9c-0.5-0.3-1-0.3-1.2-0.3 c-1.6,0-2.3,1.2-2.5,1.7c-0.1,0.2-0.2,0.5-0.3,1h5.4C376,206.9,376,205.5,374.6,204.9"/> <path d="M390.3,215.9v-7.7c0-0.9,0-1.6-0.2-2c-0.2-0.5-0.7-1.1-1.8-1.1c-0.2,0-0.8,0-1.3,0.4c-0.7,0.5-0.7,1.4-0.7,3v7.4h-3.9 v-13.6h4v1.2c0.1-0.1,0.3-0.3,0.6-0.6c0.5-0.4,1.5-0.9,3.1-0.9c0.3,0,1.4,0,2.4,0.5c1.6,0.9,1.8,2.4,1.8,4.1v9.4H390.3z"/> <path d="M408.4,213.9c-1.8,2.1-4,2.4-5,2.4c-0.6,0-1.8-0.1-3.1-0.8c-2.5-1.3-3.5-3.7-3.5-6.4c0-0.6,0-1.9,0.7-3.5 c1.5-3.6,4.8-3.9,6-3.9c1,0,3.4,0.2,5.2,2.5c0.2,0.2,0.3,0.4,0.5,0.8l-2.9,1.7c0-0.1-0.2-0.5-0.4-0.8c-0.2-0.3-1-1.1-2.2-1.1 c-0.3,0-0.8,0-1.4,0.5c-1.3,1-1.4,3.4-1.4,3.6c0,1.2,0.4,2.7,1.3,3.5c0.3,0.2,0.8,0.7,1.7,0.7c1.3,0,2-0.9,2.2-1.2 c0.1-0.2,0.2-0.4,0.4-0.8l2.9,1.6C409,213.1,408.7,213.5,408.4,213.9"/> <path d="M414.5,209.9c0,0.1,0,0.4,0,0.8c0.3,1.6,1.4,2.6,3,2.6c0.2,0,0.7,0,1.3-0.2c1.3-0.5,1.9-1.9,2.1-2.2l3,1.6 c-0.5,0.8-0.8,1.2-1.1,1.5c-2,2.2-4.5,2.4-5.5,2.4c-0.4,0-1.3,0-2.4-0.4c-2.9-0.9-4.3-3.6-4.3-6.7c0-0.8,0.1-3.4,1.7-5.3 c0.8-0.9,2.2-2.2,5.1-2.2c0.9,0,3.5,0.1,5.2,2.5c1.5,2.1,1.4,5,1.5,5.6H414.5z M418.5,204.9c-0.5-0.3-1-0.3-1.2-0.3 c-1.5,0-2.3,1.2-2.5,1.7c-0.1,0.2-0.2,0.5-0.3,1h5.4C419.9,206.9,419.8,205.5,418.5,204.9"/> <path d="M438,205v6.1c0,0.6,0,0.9,0.1,1.1c0.2,0.4,0.8,0.4,0.9,0.4c0.5,0,0.9,0,1.4,0v3.1c-0.3,0-1.2,0.2-2.1,0.2 c-0.3,0-0.6,0-0.8,0c-0.4,0-1.5,0-2.4-0.8c-1-0.9-1-2.3-1-3.6V205h-1.9v-2.5h1.9v-4.3h3.9v4.3h2.6v2.5H438z"/> <path d="M453.6,214.7c-0.8,0.7-2.3,1.6-4.8,1.6c-0.7,0-3.4-0.1-5.2-2c-0.8-0.8-1.9-2.5-1.9-5.3c0-0.8,0.1-3,1.5-4.9 c0.9-1.1,2.7-2.5,6.1-2.3c1.5,0.1,2.9,0.4,4.2,1.5c1.6,1.4,2.4,3.6,2.4,5.8C456,212.1,454.5,213.9,453.6,214.7 M450.6,205.5 c-0.4-0.3-0.9-0.5-1.9-0.5c-0.2,0-0.9,0.1-1.5,0.4c-0.7,0.4-1.5,1.6-1.5,3.6c0,1.3,0.4,2.3,0.7,2.7c0.3,0.5,1.1,1.3,2.5,1.3 c2.2,0,3.1-1.9,3.1-3.9C452,207.1,451.4,206,450.6,205.5"/> <path d="M473.9,215.9v-7.2c0-1,0.1-2.4-0.9-3.1c-0.3-0.2-0.7-0.3-1.1-0.3c-0.2,0-0.7,0.1-1.2,0.4c-0.8,0.6-0.9,1.5-0.9,3.4v6.8 h-3.9v-18.5h3.9l0,6.3c0.1-0.1,0.4-0.5,0.8-0.7c1.2-1,2.4-1.1,3-1.1c1.8,0,2.8,0.9,3.2,1.4c0.3,0.3,0.5,0.7,0.6,1.1 c0.2,0.6,0.4,1.3,0.4,2.6v9H473.9z"/> <path d="M484.3,209.9c0,0.1,0,0.4,0.1,0.8c0.3,1.6,1.4,2.6,3,2.6c0.2,0,0.7,0,1.3-0.2c1.3-0.5,1.9-1.9,2.1-2.2l2.9,1.6 c-0.5,0.8-0.8,1.2-1.1,1.5c-2,2.2-4.5,2.4-5.5,2.4c-0.4,0-1.3,0-2.4-0.4c-2.9-0.9-4.3-3.6-4.3-6.7c0-0.8,0.1-3.4,1.7-5.3 c0.8-0.9,2.2-2.2,5.1-2.2c0.9,0,3.5,0.1,5.2,2.5c1.5,2.1,1.4,5,1.5,5.6H484.3z M488.3,204.9c-0.5-0.3-1-0.3-1.2-0.3 c-1.6,0-2.3,1.2-2.5,1.7c-0.1,0.2-0.2,0.5-0.3,1h5.4C489.7,206.9,489.6,205.5,488.3,204.9"/> <path d="M503.9,215.9v-1.2c-0.3,0.2-0.5,0.4-0.8,0.6c-0.5,0.3-1.6,1-3.3,1c-2.4,0-3.5-1.3-3.9-2.3c-0.3-0.6-0.4-1.3-0.4-1.9 c0-2.5,2.1-3.6,2.7-3.9c1-0.4,2.8-0.8,5.3-1.3v-0.8c0-0.5-0.1-1.7-1.5-1.7c-1.1,0-1.7,0.6-1.9,1c0,0.1-0.1,0.3-0.2,0.6H496 c0-0.5,0.1-1.7,1.1-2.8c1.1-1.1,2.5-1.3,3-1.4c0.8-0.1,1.4-0.1,1.7-0.1c1.9,0,4.4,0.4,5.3,2.4c0.2,0.4,0.3,0.7,0.3,1.5v8 c0,1.2,0.1,1.6,0.4,2.1H503.9z M501,210.2c-0.2,0.1-0.3,0.1-0.5,0.2c-1,0.4-1.2,1-1.2,1.5c0,0.1,0,0.4,0.2,0.6 c0.2,0.3,0.5,0.8,1.3,0.8c0.7,0,1.3-0.4,1.5-0.5c1.1-0.8,1.2-2.1,1.2-3.4L501,210.2z"/> <rect x="510.9" y="197.4" width="3.9" height="18.5"/> <path d="M522.6,205v6.1c0,0.6,0,0.9,0.1,1.1c0.2,0.4,0.8,0.4,0.9,0.4c0.5,0,0.9,0,1.4,0v3.1c-0.3,0-1.2,0.2-2.1,0.2 c-0.3,0-0.6,0-0.8,0c-0.4,0-1.5,0-2.4-0.8c-1-0.9-1-2.3-1-3.6V205h-1.9v-2.5h1.9v-4.3h3.9v4.3h2.6v2.5H522.6z"/> <path d="M535.3,215.9v-7.2c0-1,0.1-2.4-0.9-3.1c-0.3-0.2-0.7-0.3-1.1-0.3c-0.2,0-0.7,0.1-1.2,0.4c-0.8,0.6-0.9,1.5-0.9,3.4v6.8 h-3.9v-18.5h3.9l0,6.3c0.1-0.1,0.4-0.5,0.8-0.7c1.2-1,2.4-1.1,3-1.1c1.8,0,2.8,0.9,3.2,1.4c0.3,0.3,0.5,0.7,0.6,1.1 c0.2,0.6,0.4,1.3,0.4,2.6v9H535.3z"/> <line class="st2" x1="459" y1="184.9" x2="539.1" y2="184.9"/> <rect x="459" y="184.3" class="st1" width="80.1" height="1.2"/> <line class="st2" x1="146.4" y1="215.2" x2="243.7" y2="215.2"/> <rect x="146.4" y="214.6" class="st1" width="97.3" height="1.2"/> </g> </g> <g> <linearGradient id="SVGID_00000060747443117831260650000004349600599947614123_" gradientUnits="userSpaceOnUse" x1="177.7837" y1="8.8105" x2="204.3681" y2="8.8105" gradientTransform="matrix(0 -1 1 0 45.9855 327.8343)"> <stop offset="2.688170e-02" style="stop-color:#836823"/> <stop offset="0.2044" style="stop-color:#FFFACB"/> <stop offset="0.2635" style="stop-color:#F0EABA"/> <stop offset="0.3809" style="stop-color:#C9BF8D"/> <stop offset="0.5439" style="stop-color:#8A7A45"/> <stop offset="0.6398" style="stop-color:#634F18"/> <stop offset="1" style="stop-color:#C2912E"/> </linearGradient> <path style="fill:url(#SVGID_00000060747443117831260650000004349600599947614123_);" d="M107.2,123.5v26.6H2.4v-26.6h8v17.1h88.7 v-17.1H107.2z"/> </g> <g> <path class="st4" d="M34,77.1c-4.6,0-8.8,4.2-8.9,8.9c0,5.1,4,9.1,9,9.1c5,0,8.8-4,8.8-9C42.9,81.2,38.9,77.1,34,77.1z"/> <linearGradient id="SVGID_00000143598520392260529100000013110631723530919068_" gradientUnits="userSpaceOnUse" x1="21.7294" y1="86.1771" x2="106.9073" y2="86.1771"> <stop offset="2.688170e-02" style="stop-color:#836823"/> <stop offset="0.2044" style="stop-color:#FFFACB"/> <stop offset="0.2635" style="stop-color:#F0EABA"/> <stop offset="0.3809" style="stop-color:#C9BF8D"/> <stop offset="0.5439" style="stop-color:#8A7A45"/> <stop offset="0.6398" style="stop-color:#634F18"/> <stop offset="1" style="stop-color:#C2912E"/> </linearGradient> <path style="fill:url(#SVGID_00000143598520392260529100000013110631723530919068_);" d="M86,55.5c-12.3-4.7-26.9-0.9-35.2,9.3 c-3.2,3.9-5.4,8.4-6.9,13.4c-0.4-0.3-0.6-0.5-0.8-0.6c-3.9-3.9-8.6-4.9-13.7-3c-5,1.9-7.7,6.5-7.6,12.3c0,5.5,4.3,10.6,9.8,11.7 c5.6,1.1,11.8-1.8,13.6-7c1-3,1.1-6.4,1.5-9.6C48.5,69.8,57.5,60,69.5,57.5C80.9,55,93,60.6,99.3,71.1c6.9,11.5,4.9,26.7-4.8,36.3 c-9.3,9.2-24.1,10.5-35.1,3.2c-1.3-0.8-2-0.8-2.8,0.4c-1,1.3-0.2,1.9,0.8,2.5c8.4,5.5,17.4,6.9,27,3.9 c13.1-4.1,22.2-16.3,22.6-30.1C107.3,73.1,99,60.5,86,55.5z M34.1,95.1c-5,0-9.1-4-9-9.1c0-4.7,4.2-8.9,8.9-8.9c4.9,0,9,4.1,9,9 C43,91.1,39.1,95.1,34.1,95.1z"/> <linearGradient id="SVGID_00000163060856981033754710000011192483501713803663_" gradientUnits="userSpaceOnUse" x1="2.0348" y1="74.2031" x2="87.3112" y2="74.2031"> <stop offset="2.688170e-02" style="stop-color:#836823"/> <stop offset="0.2044" style="stop-color:#FFFACB"/> <stop offset="0.2635" style="stop-color:#F0EABA"/> <stop offset="0.3809" style="stop-color:#C9BF8D"/> <stop offset="0.5439" style="stop-color:#8A7A45"/> <stop offset="0.6398" style="stop-color:#634F18"/> <stop offset="1" style="stop-color:#C2912E"/> </linearGradient> <path style="fill:url(#SVGID_00000163060856981033754710000011192483501713803663_);" d="M62,102c2.6-5.1,4-10.4,4-16.1 c0.1-4.3,3.1-7.8,7.2-8.6c4-0.8,8,1.3,9.7,5.1c1.7,3.8,0.8,8-2.3,10.7c-3.2,2.7-7.8,2.7-11.1,0.2c-1.2-0.9-2-1.6-3.1-0.3 c-1.2,1.4,0.1,2.5,0.9,3.1c5.5,4.5,13.5,3.2,17.9-2.8c3.9-5.3,2.3-13.8-3.3-17.6c-5.9-4-13.8-2.2-17.5,3.9c-1.7,2.8-1.8,5.8-2,8.8 c-1.1,18.6-19.7,31.3-37.1,25.5C7.7,108,0.1,87.3,9.9,71.2c5.3-8.7,11.1-17,16.7-25.5c0.9-1.4,7.3-11.1,8.2-12.5l13.7,0 C44.3,40,34.1,56.9,34.1,56.9c5.5,0,11,1.6,15.9,4.9c1.2,0.8,2,0.8,2.8-0.4c1-1.3,0.2-1.9-0.8-2.5c-3.8-2.5-7.7-4.2-11.7-5 c0,0-0.1,0-0.1,0c0,0,11.9-20,14.4-24.4H33.2C25.5,41,15.7,55.6,8.1,67.2c-4.9,7.5-7.1,15.7-5.5,24.7c2.7,14.7,13.5,25,28.2,26.9 C42.9,120.3,56.4,113,62,102z"/> </g> <g> <path d="M81.9,61.7c-2.7,7.3-7.5,0.9-8.7-3.3c-7.5,25.6-25.8-3-4-12.5c0.7-3.2-2.6-4.9-4.5-2.5c-1.8,1.8-2.9,7.4-6.4,4.8 c-6.3-6.4,11.4-16.4,15.6-9.2C76.4,44.8,78.5,56.9,81.9,61.7z M70.7,50.5c-3.7,2.2-10.1,9.6-3.8,12C70,60.6,70.1,54.9,70.7,50.5z"/> <path d="M109.3,55.8c0,3.2-6.1,4.9-7.9,2.5c-3.6-29.4-6.4-11.4-7.6,5.3c-5.2,3.1-7.3,0-8.3-8c0.6,3-0.4-2.6-2.8-16.7 c-0.6-1.9-1.5-5,1.4-5.5c3.9-0.6,6.5,2.1,5.3,5.8c0,0,1.2,7.2,1.2,7.2C100.8,14.6,105.1,40.8,109.3,55.8z"/> <path d="M129.6,48.5c1.6,12.3-14.3,12.8-17.9,2.8c1.2-2.9,7.2-2.6,7.8,1c2.9,3.6,4.6-1.2,3.1-3.6c-3.6-2.8-11-4.2-11.4-9.9 c-3-10.1,12.6-16.4,14.5-5.1c3.2,3.3-2.2,9.4-5.4,4.5c-1.4-1.1,0.1-5.3-2.1-5.3C112.2,41.6,129.7,40.6,129.6,48.5z"/> </g> </svg>