<svg xmlns="http://www.w3.org/2000/svg" viewBox="0 0 114.04 27.458"><g id="Calque_2" data-name="Calque 2"><g id="Calque_1-2" data-name="Calque 1"><path d="M32.965,11.754V.145H37.13a4.063,4.063,0,1,1,0,8.126H35.519v3.483Zm2.554-5.892h1.35a1.655,1.655,0,1,0,0-3.309h-1.35Z" style="fill:#1a3e22"/><path d="M42.829,7.705a4.068,4.068,0,0,1,4.063-4.077H48.43V6.037H47.153a1.655,1.655,0,1,0,0,3.309H48.43V6.052h2.554v5.7H46.558a4.018,4.018,0,0,1-3.729-4.049" style="fill:#1a3e22"/><polygon points="53.795 11.754 53.795 3.628 59.179 3.628 59.179 6.037 56.349 6.037 56.349 11.754 53.795 11.754" style="fill:#1a3e22"/><rect x="61.266" y="3.628" width="2.554" height="8.126" style="fill:#1a3e22"/><path d="M66.125,8.547H68.78a1.669,1.669,0,0,0,1.684.943c1.058,0,1.523-.537,1.523-1.189,0-.624-.435-1.074-1.248-1.2l-1-.159C67.619,6.6,66.212,5.5,66.212,3.628A3.734,3.734,0,0,1,70.261,0,4.2,4.2,0,0,1,74.6,3.353H71.943a1.754,1.754,0,0,0-1.7-.944c-.914,0-1.422.464-1.422,1.1,0,.6.449.886,1.291,1.015l1,.161C73.409,5.05,74.6,6.226,74.6,8.126c0,2.09-1.481,3.774-4.122,3.774a4.157,4.157,0,0,1-4.353-3.353" style="fill:#1a3e22"/><path d="M76.38,7.705a4.068,4.068,0,0,1,4.063-4.077h1.539V6.037H80.7a1.655,1.655,0,1,0,0,3.309h1.278V6.052h2.553v5.7H80.109A4.018,4.018,0,0,1,76.38,7.705" style="fill:#1a3e22"/><path d="M87.347,3.628H92.6v2.41H89.9v5.716H87.347ZM92.6,6.038h2.554v5.717H92.6Z" style="fill:#1a3e22"/><polygon points="99.285 11.754 99.285 6.037 97.239 6.037 97.239 3.628 103.885 3.628 103.885 6.037 101.839 6.037 101.839 11.754 99.285 11.754" style="fill:#1a3e22"/><path d="M109.759,11.828a4.136,4.136,0,0,1-4.223-4.136,4.252,4.252,0,0,1,8.5,0,4.789,4.789,0,0,1-.131,1.117h-5.76a1.612,1.612,0,0,0,1.451.754h1.885v2.265Zm1.712-5.138a1.647,1.647,0,0,0-1.668-.944,1.624,1.624,0,0,0-1.64.959Zm.014-5.761h2.555V3.483h-2.555Z" style="fill:#1a3e22"/><path d="M20.243,3.119A1.742,1.742,0,0,0,17.78.656L14.934,3.5a1.532,1.532,0,0,1-1.087.449H12.99A1.537,1.537,0,0,1,11.9,3.5L9.058.656A1.742,1.742,0,0,0,6.6,3.119L9.758,6.282a3.949,3.949,0,0,0,2.793,1.157h1.736A3.95,3.95,0,0,0,17.08,6.282Z" style="fill:#1a3e22"/><path d="M14.29,13.529H12.547a3.949,3.949,0,0,0-2.793,1.157L3.525,20.915a1.742,1.742,0,0,0,2.463,2.463L11.9,17.469a1.537,1.537,0,0,1,1.086-.45h.872a1.537,1.537,0,0,1,1.086.45l5.909,5.909a1.742,1.742,0,0,0,2.463-2.463l-6.229-6.229a3.949,3.949,0,0,0-2.793-1.157" style="fill:#1a3e22"/><path d="M6.075,3.639A1.742,1.742,0,0,0,3.612,6.1L6.5,8.988a1.316,1.316,0,0,1,.385.931v1.062a1.317,1.317,0,0,1-.386.931L.511,17.9a1.742,1.742,0,1,0,2.463,2.463l6.243-6.243a3.949,3.949,0,0,0,1.157-2.793V9.574A3.95,3.95,0,0,0,9.217,6.781Z" style="fill:#1a3e22"/><path d="M20.763,3.639A1.742,1.742,0,1,1,23.226,6.1L20.34,8.988a1.314,1.314,0,0,0-.385.931v1.062a1.312,1.312,0,0,0,.385.931L26.327,17.9a1.742,1.742,0,0,1-2.463,2.463l-6.243-6.243a3.95,3.95,0,0,1-1.157-2.793V9.574a3.95,3.95,0,0,1,1.157-2.793Z" style="fill:#1a3e22"/><path d="M32.682,19.824a4.29,4.29,0,0,1,8.475-.856H38.5a1.594,1.594,0,0,0-1.509-.943,1.674,1.674,0,0,0-1.7,1.8,1.675,1.675,0,0,0,1.7,1.8A1.594,1.594,0,0,0,38.5,20.68h2.656a4.29,4.29,0,0,1-8.475-.856" style="fill:#1a3e22"/><path d="M42.952,19.839a4.068,4.068,0,0,1,4.063-4.077h1.538V18.17H47.276a1.655,1.655,0,1,0,0,3.309h1.277V18.185h2.554v5.7H46.681a4.018,4.018,0,0,1-3.729-4.049" style="fill:#1a3e22"/><path d="M53.919,15.762H64.135V18.17H61.58v5.718H59.026V18.17H56.472v5.718H53.919ZM64.135,18.17h2.554v5.718H64.135Z" style="fill:#1a3e22"/><path d="M69.5,27.458v-11.7h4.092a4.063,4.063,0,1,1,0,8.126H72.051v3.57Zm2.554-5.979h1.277a1.655,1.655,0,1,0,0-3.309H72.051Z" style="fill:#1a3e22"/><path d="M79.956,20.347V15.762h2.555v4.644a1.2,1.2,0,1,0,2.408,0V15.762h2.555v4.585a3.76,3.76,0,0,1-7.518,0" style="fill:#1a3e22"/><path d="M90.11,23.888V21.6h3.657c.2,0,.32-.116.32-.261,0-.16-.131-.261-.32-.291l-1.379-.231c-1.451-.247-2.394-1.06-2.394-2.409a2.551,2.551,0,0,1,2.67-2.641h3.308v2.292h-3.22c-.2,0-.32.116-.32.262s.13.26.32.29l1.378.232c1.451.246,2.394,1.045,2.394,2.408a2.552,2.552,0,0,1-2.67,2.642Z" style="fill:#1a3e22"/></g></g></svg>